<?xml version="1.0" encoding="UTF-8"?>
<svg xmlns="http://www.w3.org/2000/svg" viewBox="0 0 48 48" width="48" height="48">
  <g opacity="0.85">
    <!-- Left wings -->
    <path d="M24 24 C20 14 10 8 8 16 C6 24 14 28 24 24Z" fill="#c4963a" opacity="0.8">
      <animate attributeName="d" dur="0.3s" repeatCount="indefinite"
        values="M24 24 C20 14 10 8 8 16 C6 24 14 28 24 24Z;
                M24 24 C22 18 14 14 12 18 C10 22 16 25 24 24Z;
                M24 24 C20 14 10 8 8 16 C6 24 14 28 24 24Z"/>
    </path>
    <!-- Right wings -->
    <path d="M24 24 C28 14 38 8 40 16 C42 24 34 28 24 24Z" fill="#c4963a" opacity="0.8">
      <animate attributeName="d" dur="0.3s" repeatCount="indefinite"
        values="M24 24 C28 14 38 8 40 16 C42 24 34 28 24 24Z;
                M24 24 C26 18 34 14 36 18 C38 22 32 25 24 24Z;
                M24 24 C28 14 38 8 40 16 C42 24 34 28 24 24Z"/>
    </path>
    <!-- Left hindwing -->
    <path d="M24 24 C18 28 8 32 10 38 C12 44 20 34 24 28Z" fill="#4a8c7e" opacity="0.7">
      <animate attributeName="d" dur="0.3s" repeatCount="indefinite"
        values="M24 24 C18 28 8 32 10 38 C12 44 20 34 24 28Z;
                M24 24 C20 30 14 32 15 36 C16 40 20 32 24 28Z;
                M24 24 C18 28 8 32 10 38 C12 44 20 34 24 28Z"/>
    </path>
    <!-- Right hindwing -->
    <path d="M24 24 C30 28 40 32 38 38 C36 44 28 34 24 28Z" fill="#4a8c7e" opacity="0.7">
      <animate attributeName="d" dur="0.3s" repeatCount="indefinite"
        values="M24 24 C30 28 40 32 38 38 C36 44 28 34 24 28Z;
                M24 24 C28 30 34 32 33 36 C32 40 28 32 24 28Z;
                M24 24 C30 28 40 32 38 38 C36 44 28 34 24 28Z"/>
    </path>
    <!-- Body -->
    <ellipse cx="24" cy="24" rx="2" ry="8" fill="#2c2418"/>
    <!-- Antennae -->
    <path d="M24 16 C22 12 18 10 16 8" stroke="#2c2418" stroke-width="0.8" fill="none" stroke-linecap="round"/>
    <path d="M24 16 C26 12 30 10 32 8" stroke="#2c2418" stroke-width="0.8" fill="none" stroke-linecap="round"/>
  </g>
</svg>
